<?xml version="1.0" encoding="UTF-8"?>
<svg version="1.1" xmlns="http://www.w3.org/2000/svg" width="2200" height="2200">
<path d="M0 0 C726 0 1452 0 2200 0 C2200 726 2200 1452 2200 2200 C1474 2200 748 2200 0 2200 C0 1474 0 748 0 0 Z " fill="#000000" transform="translate(0,0)"/>
<path d="M0 0 C2.41369124 0.01074261 4.8274206 0.01480117 7.24113464 0.01249695 C12.28418765 0.02653126 17.32144312 0.10070013 22.36303711 0.22192383 C28.8218008 0.37527151 35.27423737 0.40924093 41.73460865 0.40241718 C46.71174927 0.40486496 51.68750921 0.45422219 56.66419029 0.51943016 C59.0455043 0.54803257 61.42697428 0.56579879 63.8084507 0.57247353 C67.13518257 0.59201906 70.45522766 0.67078263 73.78051758 0.7668457 C74.76089493 0.76276703 75.74127228 0.75868835 76.75135803 0.75448608 C80.81769837 0.92610447 83.30320303 1.0482218 86.20748901 4.05882168 C87.74486339 6.34013298 89.04565144 8.62470108 90.29296875 11.07421875 C90.91864746 12.06284912 91.54432617 13.05147949 92.18896484 14.07006836 C92.72602051 14.94671143 93.26307617 15.82335449 93.81640625 16.7265625 C94.43644531 17.73654297 95.05648437 18.74652344 95.6953125 19.78710938 C96.67177734 21.38329102 96.67177734 21.38329102 97.66796875 23.01171875 C98.36960868 24.15571121 99.07143572 25.29958893 99.7734375 26.44335938 C101.22695643 28.81189696 102.67968174 31.18091844 104.13183594 33.55029297 C107.51136206 39.06289179 110.90290998 44.56809366 114.29296875 50.07421875 C115.62373408 52.23695692 116.95446314 54.3997174 118.28515625 56.5625 C120.97633945 60.93583704 123.66921636 65.30812509 126.36328125 69.6796875 C132.76235381 80.06597504 139.14665732 90.46048092 145.48046875 100.88671875 C150.37049466 108.93563001 155.30056127 116.95830552 160.26513672 124.96142578 C164.56010223 131.88575137 168.83646384 138.82135949 173.10546875 145.76171875 C173.77690918 146.85331299 174.44834961 147.94490723 175.14013672 149.06958008 C176.50837207 151.29422699 177.87653579 153.51891796 179.24462891 155.74365234 C182.59290563 161.18789443 185.94301634 166.63100765 189.29296875 172.07421875 C190.62631117 174.24087983 191.95964449 176.4075465 193.29296875 178.57421875 C193.95296875 179.64671875 194.61296875 180.71921875 195.29296875 181.82421875 C234.62630208 245.74088542 273.95963542 309.65755208 313.29296875 373.57421875 C313.95312988 374.64696045 314.61329102 375.71970215 315.29345703 376.82495117 C316.62523543 378.98913172 317.95694129 381.1533569 319.28857422 383.31762695 C322.6451013 388.77270172 326.00293061 394.22696711 329.36328125 399.6796875 C335.76235381 410.06597504 342.14665732 420.46048092 348.48046875 430.88671875 C353.37049466 438.93563001 358.30056127 446.95830552 363.26513672 454.96142578 C367.56010223 461.88575137 371.83646384 468.82135949 376.10546875 475.76171875 C376.77690918 476.85331299 377.44834961 477.94490723 378.14013672 479.06958008 C379.50837207 481.29422699 380.87653579 483.51891796 382.24462891 485.74365234 C385.59290563 491.18789443 388.94301634 496.63100765 392.29296875 502.07421875 C393.62631117 504.24087983 394.95964449 506.4075465 396.29296875 508.57421875 C396.95296875 509.64671875 397.61296875 510.71921875 398.29296875 511.82421875 C432.29296875 567.07421875 466.29296875 622.32421875 500.29296875 677.57421875 C500.95312988 678.64696045 501.61329102 679.71970215 502.29345703 680.82495117 C503.62523543 682.98913172 504.95694129 685.1533569 506.28857422 687.31762695 C509.6451013 692.77270172 513.00293061 698.22696711 516.36328125 703.6796875 C522.76235381 714.06597504 529.14665732 724.46048092 535.48046875 734.88671875 C540.37049466 742.93563001 545.30056127 750.95830552 550.26513672 758.96142578 C554.56010223 765.88575137 558.83646384 772.82135949 563.10546875 779.76171875 C563.77690918 780.85331299 564.44834961 781.94490723 565.14013672 783.06958008 C566.50837207 785.29422699 567.87653579 787.51891796 569.24462891 789.74365234 C572.59290563 795.18789443 575.94301634 800.63100765 579.29296875 806.07421875 C580.62631117 808.24087983 581.95964449 810.4075465 583.29296875 812.57421875 C583.95296875 813.64671875 584.61296875 814.71921875 585.29296875 815.82421875 C624.62630208 879.74088542 663.95963542 943.65755208 703.29296875 1007.57421875 C703.95312988 1008.64696045 704.61329102 1009.71970215 705.29345703 1010.82495117 C706.62523543 1012.98913172 707.95694129 1015.1533569 709.28857422 1017.31762695 C712.6451013 1022.77270172 716.00293061 1028.22696711 719.36328125 1033.6796875 C725.76235381 1044.06597504 732.14665732 1054.46048092 738.48046875 1064.88671875 C743.37049466 1072.93563001 748.30056127 1080.95830552 753.26513672 1088.96142578 C757.56010223 1095.88575137 761.83646384 1102.82135949 766.10546875 1109.76171875 C766.77690918 1110.85331299 767.44834961 1111.94490723 768.14013672 1113.06958008 C769.50837207 1115.29422699 770.87653579 1117.51891796 772.24462891 1119.74365234 C775.59290563 1125.18789443 778.94301634 1130.63100765 782.29296875 1136.07421875 C783.62631117 1138.24087983 784.95964449 1140.4075465 786.29296875 1142.57421875 C786.95296875 1143.64671875 787.61296875 1144.71921875 788.29296875 1145.82421875 C866.57421875 1273.03125 866.57421875 1273.03125 868.38671875 1276.00244141 C869.75550367 1278.20813453 871.14580968 1280.38224451 872.57421875 1282.54833984 C873.1373175 1283.41854012 873.1373175 1283.41854012 873.71179199 1284.30632019 C874.76631306 1285.93405555 875.83491221 1287.55264517 876.90429688 1289.1706543 C878.29296875 1292.07421875 878.29296875 1292.07421875 878.17871094 1294.65356445 C877.21735634 1297.28086071 876.0650811 1299.47716109 874.58984375 1301.85546875 C874.02845703 1302.76876953 873.46707031 1303.68207031 872.88867188 1304.62304688 C872.27958984 1305.59693359 871.67050781 1306.57082031 871.04296875 1307.57421875 C870.41326172 1308.59451172 869.78355469 1309.61480469 869.13476562 1310.66601562 C867.1945363 1313.80650693 865.24443917 1316.94070343 863.29296875 1320.07421875 C862.18294338 1321.86548255 861.07353296 1323.65712763 859.96484375 1325.44921875 C858.37475753 1328.01909445 856.78406107 1330.58857092 855.19042969 1333.15625 C851.18874408 1339.60730571 847.23321716 1346.08548601 843.29296875 1352.57421875 C837.14767427 1362.69336782 830.92926419 1372.76565086 824.68701172 1382.82519531 C821.54168054 1387.89958951 818.41853894 1392.98763772 815.29296875 1398.07421875 C813.95978213 1400.2409757 812.62644599 1402.40764065 811.29296875 1404.57421875 C810.63296875 1405.64671875 809.97296875 1406.71921875 809.29296875 1407.82421875 C667.29296874 1638.57421876 667.29296874 1638.57421876 665.29248047 1641.82495117 C663.96070207 1643.98913172 662.62899621 1646.1533569 661.29736328 1648.31762695 C657.9408362 1653.77270172 654.58300689 1659.22696711 651.22265625 1664.6796875 C649.87098743 1666.87363242 648.51942443 1669.06764253 647.16796875 1671.26171875 C646.50571289 1672.33687744 645.84345703 1673.41203613 645.16113281 1674.51977539 C640.76234084 1681.6680828 636.39602041 1688.8354901 632.04296875 1696.01171875 C627.2752905 1703.87001938 622.41835422 1711.66483645 617.48828125 1719.42211914 C613.68389344 1725.42031078 610.00849701 1731.48709238 606.375 1737.58984375 C603.07830891 1743.12373973 599.67895822 1748.59470497 596.29296875 1754.07421875 C594.95919856 1756.24061652 593.62586716 1758.4072845 592.29296875 1760.57421875 C512.29296875 1890.57421876 512.29296875 1890.57421876 510.28955078 1893.82958984 C508.96739236 1895.97821854 507.64544928 1898.12697976 506.32373047 1900.27587891 C503.19780686 1905.35753233 500.06968181 1910.437792 496.93389893 1915.5133667 C495.45133823 1917.9133342 493.97000604 1920.31405881 492.48876953 1922.71484375 C491.44162854 1924.41089701 490.39270961 1926.10585216 489.34375 1927.80078125 C488.71082031 1928.826875 488.07789063 1929.85296875 487.42578125 1930.91015625 C486.86777832 1931.8129834 486.30977539 1932.71581055 485.73486328 1933.64599609 C484.48272868 1935.75465351 483.3751609 1937.87596944 482.29296875 1940.07421875 C468.23738559 1940.40195428 454.18239836 1940.64753377 440.12377262 1940.79958916 C433.59508098 1940.8725812 427.06895995 1940.97152483 420.54174805 1941.13037109 C414.23914412 1941.28278682 407.93900753 1941.36625401 401.63470268 1941.40250015 C399.23303813 1941.42831872 396.83150506 1941.47874378 394.43089485 1941.55443954 C376.1094219 1942.10903563 376.1094219 1942.10903563 371.43102837 1938.72901344 C367.96274573 1934.99143114 366.18895125 1930.7518082 364.29296875 1926.07421875 C363.10878098 1924.07209915 361.89464362 1922.08692759 360.6328125 1920.1328125 C359.49697314 1918.26015965 358.36285987 1916.38645877 357.23046875 1914.51171875 C356.01845439 1912.51288425 354.80621645 1910.5141853 353.59375 1908.515625 C353.02350098 1907.57477051 352.45325195 1906.63391602 351.86572266 1905.66455078 C348.70073239 1900.45179904 345.49611129 1895.26358941 342.29296875 1890.07421875 C340.95934132 1887.90773309 339.62601491 1885.74106212 338.29296875 1883.57421875 C336.95965463 1881.40754026 335.62632147 1879.24087349 334.29296875 1877.07421875 C226.29296878 1701.57421881 226.29296878 1701.57421881 224.29223633 1698.32299805 C222.96138074 1696.16037803 221.63048892 1693.9977803 220.29956055 1691.83520508 C216.9280175 1686.35680867 213.55714136 1680.87800383 210.1875 1675.3984375 C204.06851199 1665.44924325 197.94543356 1655.50275406 191.79296875 1645.57421875 C181.13943689 1628.37907359 170.53966806 1611.15148901 160.03295898 1593.86621094 C155.81071972 1586.92028177 151.5624847 1579.99120747 147.29296875 1573.07421875 C145.95934132 1570.90773309 144.62601491 1568.74106212 143.29296875 1566.57421875 C141.95965463 1564.40754026 140.62632147 1562.24087349 139.29296875 1560.07421875 C63.29296875 1436.57421875 63.29296875 1436.57421875 61.29003906 1433.31933594 C59.96661686 1431.16885576 58.64305091 1429.01846404 57.31933594 1426.86816406 C54.20536332 1421.80930277 51.09282239 1416.74957783 47.98547363 1411.68664551 C46.52376811 1409.30522955 45.06123186 1406.92432429 43.59863281 1404.54345703 C42.57145663 1402.87061367 41.54547678 1401.1970359 40.51953125 1399.5234375 C36.78429389 1393.42653746 36.78429389 1393.42653746 32.83984375 1387.46484375 C31.29296875 1385.07421875 31.29296875 1385.07421875 31.29296875 1383.07421875 C28.07788177 1386.04829604 25.88360826 1389.09761686 23.640625 1392.8515625 C23.3044516 1393.41006393 22.9682782 1393.96856537 22.62191772 1394.54399109 C21.90221847 1395.74104273 21.18512631 1396.93966505 20.47042847 1398.13970947 C18.95430288 1400.68527333 17.42548868 1403.22313218 15.89741516 1405.76153564 C15.12420985 1407.04625853 14.35165792 1408.33137488 13.57975769 1409.61688232 C10.34231551 1415.0062057 7.05062032 1420.3604403 3.73046875 1425.69921875 C2.68345357 1427.38532963 1.63658059 1429.07152882 0.58984375 1430.7578125 C0.05939453 1431.6122998 -0.47105469 1432.46678711 -1.01757812 1433.34716797 C-4.1963824 1438.47827256 -7.35734813 1443.62036039 -10.51953125 1448.76171875 C-11.19121338 1449.85371582 -11.86289551 1450.94571289 -12.55493164 1452.07080078 C-13.92292731 1454.29503805 -15.29084684 1456.51932215 -16.65869141 1458.74365234 C-20.00696813 1464.18789443 -23.35707884 1469.63100765 -26.70703125 1475.07421875 C-28.04037367 1477.24087983 -29.37370699 1479.4075465 -30.70703125 1481.57421875 C-38.70703125 1494.57421874 -38.70703125 1494.57421874 -40.70751953 1497.82495117 C-42.03929793 1499.98913172 -43.37100379 1502.1533569 -44.70263672 1504.31762695 C-48.0591638 1509.77270172 -51.41699311 1515.22696711 -54.77734375 1520.6796875 C-56.12901257 1522.87363242 -57.48057557 1525.06764253 -58.83203125 1527.26171875 C-59.49428711 1528.33687744 -60.15654297 1529.41203613 -60.83886719 1530.51977539 C-65.23765916 1537.6680828 -69.60397959 1544.8354901 -73.95703125 1552.01171875 C-78.7247095 1559.87001938 -83.58164578 1567.66483645 -88.51171875 1575.42211914 C-92.31610656 1581.42031078 -95.99150299 1587.48709238 -99.625 1593.58984375 C-102.92169109 1599.12373973 -106.32104178 1604.59470497 -109.70703125 1610.07421875 C-111.04080144 1612.24061652 -112.37413284 1614.4072845 -113.70703125 1616.57421875 C-241.70703126 1824.57421876 -241.70703126 1824.57421876 -243.70751953 1827.82495117 C-245.03929793 1829.98913172 -246.37100379 1832.1533569 -247.70263672 1834.31762695 C-251.0591638 1839.77270172 -254.41699311 1845.22696711 -257.77734375 1850.6796875 C-264.75629249 1862.0071678 -271.70867999 1873.34977218 -278.61621094 1884.72094727 C-284.12965693 1893.78811725 -289.71776165 1902.80834903 -295.31298828 1911.82519531 C-297.22155378 1914.90430308 -299.12153331 1917.98858468 -301.01953125 1921.07421875 C-301.61301865 1921.99251968 -302.20650604 1922.91082062 -302.81797791 1923.85694885 C-304.78956574 1927.00724964 -304.78956574 1927.00724964 -305.97242737 1930.42466736 C-307.68173834 1934.37704461 -309.20319399 1937.47594806 -312.70703125 1940.07421875 C-320.26018636 1942.79195956 -328.81775304 1942.2749951 -336.734375 1942.328125 C-339.12605401 1942.37503445 -341.51770186 1942.42355829 -343.90931702 1942.47361755 C-348.92244541 1942.56039634 -353.93269362 1942.59255913 -358.9465332 1942.59301758 C-364.06930892 1942.60090102 -369.17518668 1942.70472615 -374.29418945 1942.90063477 C-416.73982307 1944.50235075 -416.73982307 1944.50235075 -425.64065552 1937.36474609 C-431.7741972 1931.28619635 -434.82704946 1923.59809639 -437.47125244 1915.51493835 C-439.33258371 1910.33252306 -442.21647891 1905.99597649 -445.26953125 1901.44921875 C-446.32222021 1899.76664434 -447.36978622 1898.08084418 -448.41015625 1896.390625 C-448.94060547 1895.5361377 -449.47105469 1894.68165039 -450.01757812 1893.80126953 C-453.1963824 1888.67016494 -456.35734813 1883.52807711 -459.51953125 1878.38671875 C-460.19121338 1877.29472168 -460.86289551 1876.20272461 -461.55493164 1875.07763672 C-462.92292731 1872.85339945 -464.29084684 1870.62911535 -465.65869141 1868.40478516 C-469.00696813 1862.96054307 -472.35707884 1857.51742985 -475.70703125 1852.07421875 C-477.04037367 1849.90755767 -478.37370699 1847.740891 -479.70703125 1845.57421875 C-480.36703125 1844.50171875 -481.02703125 1843.42921875 -481.70703125 1842.32421875 C-487.70703125 1832.57421875 -487.70703125 1832.57421875 -489.70776367 1829.32299805 C-491.03861926 1827.16037803 -492.36951108 1824.9977803 -493.70043945 1822.83520508 C-497.0719825 1817.35680867 -500.44285864 1811.87800383 -503.8125 1806.3984375 C-509.93148775 1796.44924368 -516.05446935 1786.50269359 -522.20703125 1776.57421875 C-529.04184782 1765.54478004 -535.83991076 1754.49283044 -542.63671875 1743.43994141 C-544.72163514 1740.05047709 -546.80787046 1736.66182815 -548.89453125 1733.2734375 C-556.08276933 1721.60016528 -563.2593628 1709.92009646 -570.39941406 1698.21728516 C-572.7298162 1694.39796665 -575.06211144 1690.5798053 -577.39453125 1686.76171875 C-577.81001221 1686.08109375 -578.22549316 1685.40046875 -578.65356445 1684.69921875 C-582.65542972 1678.147734 -586.68184342 1671.61139102 -590.70703125 1665.07421875 C-591.9466774 1663.05993449 -593.18626225 1661.04561251 -594.42578125 1659.03125 C-595.34617187 1657.53561523 -595.34617187 1657.53561523 -596.28515625 1656.00976562 C-690.70703125 1502.57421876 -690.70703125 1502.57421876 -692.70776367 1499.32299805 C-694.03861926 1497.16037803 -695.36951108 1494.9977803 -696.70043945 1492.83520508 C-700.0719825 1487.35680867 -703.44285864 1481.87800383 -706.8125 1476.3984375 C-712.93148801 1466.44924325 -719.05456644 1456.50275406 -725.20703125 1446.57421875 C-735.86056311 1429.37907359 -746.46033194 1412.15148901 -756.96704102 1394.86621094 C-760.55547458 1388.96294402 -764.15706809 1383.06845377 -767.78515625 1377.18945312 C-769.68051903 1374.11719334 -771.57316079 1371.04327674 -773.46484375 1367.96875 C-774.17268804 1366.81835891 -774.88053311 1365.66796829 -775.58837891 1364.51757812 C-775.94281067 1363.94152832 -776.29724243 1363.36547852 -776.66241455 1362.77197266 C-778.87035109 1359.18354364 -781.07864268 1355.5953331 -783.28686523 1352.00708008 C-784.61460991 1349.84943167 -785.94223916 1347.69171222 -787.26977539 1345.53393555 C-791.56015456 1338.56052052 -791.56015456 1338.56052052 -795.85498047 1331.58984375 C-796.20729736 1331.01840637 -796.55961426 1330.44696899 -796.92260742 1329.85821533 C-797.97640316 1328.14964389 -799.03092346 1326.44151941 -800.08544922 1324.73339844 C-801.44619669 1322.52174011 -802.800811 1320.30629523 -804.14892578 1318.08691406 C-806.96012169 1313.4651294 -809.77649155 1308.89903505 -812.921875 1304.49609375 C-818.95032945 1295.91830853 -818.95032945 1295.91830853 -818.36328125 1291.46875 C-817.120215 1289.02430569 -815.67612207 1286.94689746 -813.98632812 1284.79248047 C-811.93281962 1282.03435207 -810.20955814 1279.0832163 -808.42895508 1276.14428711 C-806.77128109 1273.41157061 -805.08448931 1270.69869956 -803.390625 1267.98828125 C-799.53309725 1261.80338188 -795.71164009 1255.59662124 -791.89453125 1249.38671875 C-790.53387447 1247.17446668 -789.17319723 1244.96222719 -787.8125 1242.75 C-787.13364746 1241.6460791 -786.45479492 1240.5421582 -785.75537109 1239.40478516 C-782.40709437 1233.96054307 -779.05698366 1228.51742985 -775.70703125 1223.07421875 C-774.37368883 1220.90755767 -773.04035551 1218.740891 -771.70703125 1216.57421875 C-731.70703123 1151.57421872 -731.70703123 1151.57421872 -729.70581055 1148.32226562 C-728.37650988 1146.16213174 -727.04724538 1144.0019756 -725.71801758 1141.84179688 C-722.32328529 1136.32499275 -718.92786711 1130.80861266 -715.53125 1125.29296875 C-708.3393698 1113.61302429 -701.15865361 1101.92657706 -694.01464844 1090.21728516 C-687.26600752 1079.15687254 -680.50466218 1068.10460132 -673.70703125 1057.07421875 C-672.37355175 1054.90764204 -671.04022015 1052.74097429 -669.70703125 1050.57421875 C-661.70703125 1037.57421875 -661.70703125 1037.57421875 -659.6796875 1034.28125 C-658.43573216 1032.25889884 -657.19332904 1030.23559131 -655.953125 1028.2109375 C-652.81436004 1023.09264907 -649.6565319 1017.98777909 -646.46484375 1012.90234375 C-639.58938258 1001.9451297 -632.78051088 990.95276394 -626.08203125 979.88671875 C-620.1099273 970.02071736 -614.08718021 960.18858102 -608.00390625 950.390625 C-604.28459377 944.39927808 -600.58895221 938.39343668 -596.89453125 932.38671875 C-596.22284912 931.29472168 -595.55116699 930.20272461 -594.85913086 929.07763672 C-593.49113519 926.85339945 -592.12321566 924.62911535 -590.75537109 922.40478516 C-587.40709437 916.96054307 -584.05698366 911.51742985 -580.70703125 906.07421875 C-579.37368883 903.90755767 -578.04035551 901.740891 -576.70703125 899.57421875 C-536.70703125 834.57421875 -536.70703125 834.57421875 -534.70654297 831.32348633 C-533.37476457 829.15930578 -532.04305871 826.9950806 -530.71142578 824.83081055 C-527.3548987 819.37573578 -523.99706939 813.92147039 -520.63671875 808.46875 C-513.54178742 796.95311758 -506.47177164 785.42313648 -499.44628906 773.86499023 C-495.22427874 766.91947731 -490.97629794 759.99080365 -486.70703125 753.07421875 C-485.37340382 750.90773309 -484.04007741 748.74106212 -482.70703125 746.57421875 C-466.70703125 720.57421875 -466.70703125 720.57421875 -464.6796875 717.28125 C-463.43573216 715.25889884 -462.19332904 713.23559131 -460.953125 711.2109375 C-457.17121765 705.04389635 -453.35024651 698.90297672 -449.50830078 692.77319336 C-443.28465528 682.84139102 -437.12381945 672.87566233 -431.04394531 662.85522461 C-424.65702301 652.33144025 -418.19774878 641.8525201 -411.73925781 631.37255859 C-408.39282081 625.94123183 -405.05009707 620.50762092 -401.70703125 615.07421875 C-400.37371608 612.9075409 -399.04038274 610.74087424 -397.70703125 608.57421875 C-397.04703125 607.50171875 -396.38703125 606.42921875 -395.70703125 605.32421875 C-373.70703126 569.57421876 -373.70703126 569.57421876 -371.70654297 566.32348633 C-370.37476457 564.15930578 -369.04305871 561.9950806 -367.71142578 559.83081055 C-364.3548987 554.37573578 -360.99706939 548.92147039 -357.63671875 543.46875 C-350.54178742 531.95311758 -343.47177164 520.42313648 -336.44628906 508.86499023 C-332.22427874 501.91947731 -327.97629794 494.99080365 -323.70703125 488.07421875 C-322.37340382 485.90773309 -321.04007741 483.74106212 -319.70703125 481.57421875 C-295.70703125 442.57421875 -295.70703125 442.57421875 -293.6796875 439.28125 C-292.43573216 437.25889884 -291.19332904 435.23559131 -289.953125 433.2109375 C-286.17121765 427.04389635 -282.35024651 420.90297672 -278.50830078 414.77319336 C-272.28465528 404.84139102 -266.12381945 394.87566233 -260.04394531 384.85522461 C-253.65702301 374.33144025 -247.19774878 363.8525201 -240.73925781 353.37255859 C-237.39282081 347.94123183 -234.05009707 342.50762092 -230.70703125 337.07421875 C-229.37371608 334.9075409 -228.04038274 332.74087424 -226.70703125 330.57421875 C-226.04703125 329.50171875 -225.38703125 328.42921875 -224.70703125 327.32421875 C-154.70703126 213.57421877 -154.70703126 213.57421877 -152.70581055 210.32226562 C-151.37650988 208.16213174 -150.04724538 206.0019756 -148.71801758 203.84179688 C-145.32328529 198.32499275 -141.92786711 192.80861266 -138.53125 187.29296875 C-131.3393698 175.61302429 -124.15865361 163.92657706 -117.01464844 152.21728516 C-110.26600752 141.15687254 -103.50466218 130.10460132 -96.70703125 119.07421875 C-95.37355175 116.90764204 -94.04022015 114.74097429 -92.70703125 112.57421875 C-92.03800781 111.48753906 -91.36898437 110.40085937 -90.6796875 109.28125 C-89.43573216 107.25889884 -88.19332904 105.23559131 -86.953125 103.2109375 C-83.81436004 98.09264907 -80.6565319 92.98777909 -77.46484375 87.90234375 C-70.21816998 76.35353942 -63.05712348 64.75910017 -55.99777222 53.09524536 C-50.85607155 44.600129 -45.6783847 36.12899087 -40.43115234 27.69848633 C-39.96789551 26.9536499 -39.50463867 26.20881348 -39.02734375 25.44140625 C-38.53640732 24.69913788 -38.04547089 23.95686951 -37.53965759 23.19210815 C-36.06264013 20.67922432 -34.96022601 18.3570267 -33.84513855 15.6855011 C-26.43626839 -0.63396082 -16.64234672 -0.48882982 0 0 Z " fill="#FEFEFE" transform="translate(1069.70703125,128.92578125)"/>
<path d="M0 0 C0.66 0 1.32 0 2 0 C3.44189453 1.97412109 3.44189453 1.97412109 5.1328125 4.7734375 C6.08220703 6.33191406 6.08220703 6.33191406 7.05078125 7.921875 C7.74224462 9.07288235 8.43364922 10.22392501 9.125 11.375 C9.84428542 12.56036139 10.56434927 13.74525074 11.28515625 14.9296875 C12.78461422 17.39498232 14.2806731 19.86229203 15.77441406 22.33105469 C19.15166683 27.90657999 22.57814129 33.45178539 26 39 C27.33094727 41.16262621 28.66167553 43.32538721 29.9921875 45.48828125 C32.6833707 49.86161829 35.37624761 54.23390634 38.0703125 58.60546875 C45.16524383 70.12110117 52.23525961 81.65108227 59.26074219 93.20922852 C62.84894418 99.11208081 66.45028606 105.00616881 70.078125 110.88476562 C71.97348778 113.95702541 73.86612954 117.03094201 75.7578125 120.10546875 C76.46565679 121.25585984 77.17350186 122.40625046 77.88134766 123.55664062 C78.4129953 124.42071533 78.4129953 124.42071533 78.9553833 125.30224609 C80.54303886 127.88256903 82.13090001 130.46276545 83.71875 133.04296875 C100.03124999 159.55078124 100.03124999 159.55078124 102.01831055 162.77978516 C103.34265576 164.93182573 104.66703744 167.08384385 105.99145508 169.23583984 C109.36364904 174.71529427 112.73517668 180.19515677 116.10546875 185.67578125 C122.2244565 195.62497507 128.3474381 205.57152516 134.5 215.5 C141.34209481 226.54118371 148.14751989 237.60483237 154.95166016 248.66943359 C158.29993688 254.11367568 161.65004759 259.5567889 165 265 C166.33334242 267.16666108 167.66667574 269.33332775 169 271.5 C169.66 272.5725 170.32 273.645 171 274.75 C189 304 207 333.25 225 362.5 C225.66040283 363.57314453 226.32080566 364.64628906 227.0012207 365.75195312 C228.33052137 367.91208701 229.65978587 370.07224315 230.98901367 372.23242188 C234.38374596 377.749226 237.77916414 383.26560609 241.17578125 388.78125 C249.23350514 401.86736446 257.26929631 414.96639825 265.27246094 428.0859375 C273.12196246 440.95122865 281.01683988 453.7883571 288.91943359 466.62109375 C292.28077519 472.08001979 295.6402949 477.54006668 299 483 C299.65742187 484.06822998 300.31484375 485.13645996 300.9921875 486.23706055 C304.36415585 491.71609668 307.73542523 497.19556095 311.10546875 502.67578125 C317.45463551 512.9993222 323.80854712 523.31982969 330.1875 533.625 C330.96226685 534.8766394 330.96226685 534.8766394 331.75268555 536.15356445 C332.240354 536.94077881 332.72802246 537.72799316 333.23046875 538.5390625 C333.68856934 539.28961914 334.14666992 540.04017578 334.61865234 540.81347656 C335.54931611 542.28661631 336.52538556 543.73191184 337.54150391 545.14746094 C341.09484786 550.21544324 341.09484786 550.21544324 340.640625 553.97265625 C338.50481244 557.91373895 336.20243059 561.68616762 333.75 565.4375 C332.65841248 567.13559907 331.5686458 568.83486967 330.48046875 570.53515625 C329.90989746 571.42605957 329.33932617 572.31696289 328.75146484 573.23486328 C325.79077157 577.9090774 322.92788089 582.64196911 320.0625 587.375 C315.6159028 594.70804896 311.14615376 602.02515994 306.625 609.3125 C301.79716217 617.09478554 296.98565421 624.88687323 292.1875 632.6875 C291.51605957 633.77909424 290.84461914 634.87068848 290.15283203 635.99536133 C288.78459668 638.22000824 287.41643296 640.44469921 286.04833984 642.66943359 C282.70006312 648.11367568 279.34995241 653.5567889 276 659 C274.66665758 661.16666108 273.33332426 663.33332775 272 665.5 C216 756.49999999 216 756.49999999 213.99951172 759.75073242 C212.66773332 761.91491297 211.33602746 764.07913815 210.00439453 766.2434082 C206.64786745 771.69848297 203.29003814 777.15274836 199.9296875 782.60546875 C193.53061494 792.99175629 187.14631143 803.38626217 180.8125 813.8125 C175.92247409 821.86141126 170.99240748 829.88408677 166.02783203 837.88720703 C161.73286652 844.81153262 157.45650491 851.74714074 153.1875 858.6875 C152.18033936 860.32489136 152.18033936 860.32489136 151.15283203 861.99536133 C149.78459668 864.22000824 148.41643296 866.44469921 147.04833984 868.66943359 C143.70006312 874.11367568 140.34995241 879.5567889 137 885 C135.66665758 887.16666108 134.33332426 889.33332775 133 891.5 C103.66666667 939.16666667 74.33333333 986.83333333 45 1034.5 C44.33991943 1035.57266113 43.67983887 1036.64532227 42.99975586 1037.75048828 C41.66734531 1039.91559442 40.3348259 1042.08063356 39.00219727 1044.24560547 C35.65384618 1049.68560214 32.30743716 1055.12677586 28.96484375 1060.5703125 C26.30990267 1064.8938627 23.64935602 1069.21388185 20.984375 1073.53125 C18.58354617 1077.42102015 16.19585861 1081.31815393 13.82481384 1085.22610474 C12.12025406 1088.03055558 10.40242863 1090.82688158 8.6875 1093.625 C8.05900146 1094.66930176 7.43050293 1095.71360352 6.78295898 1096.78955078 C6.19844971 1097.73813965 5.61394043 1098.68672852 5.01171875 1099.6640625 C4.50084717 1100.50404785 3.98997559 1101.3440332 3.46362305 1102.20947266 C2.98062744 1102.80034668 2.49763184 1103.3912207 2 1104 C1.01 1104 0.02 1104 -1 1104 C-2.37524414 1102.234375 -2.37524414 1102.234375 -3.78515625 1099.75 C-4.31020752 1098.84024414 -4.83525879 1097.93048828 -5.3762207 1096.99316406 C-5.93269287 1096.00541992 -6.48916504 1095.01767578 -7.0625 1094 C-8.24322169 1091.95221897 -9.4255224 1089.9053476 -10.609375 1087.859375 C-11.19009766 1086.85068359 -11.77082031 1085.84199219 -12.36914062 1084.80273438 C-14.44393213 1081.23707472 -16.60503598 1077.73457561 -18.8125 1074.25 C-23.13117434 1067.4041279 -27.38641401 1060.52075387 -31.625 1053.625 C-32.30796143 1052.51415039 -32.99092285 1051.40330078 -33.69458008 1050.25878906 C-35.09764725 1047.97633127 -36.50057126 1045.69378607 -37.90332031 1043.41113281 C-41.26628439 1037.93915825 -44.63342509 1032.46975344 -48 1027 C-49.33335151 1024.83334452 -50.66668482 1022.66667783 -52 1020.5 C-52.66 1019.4275 -53.32 1018.355 -54 1017.25 C-98.66666667 944.66666667 -143.33333333 872.08333333 -188 799.5 C-188.66016113 798.4272583 -189.32032227 797.3545166 -190.00048828 796.24926758 C-191.33226668 794.08508703 -192.66397254 791.92086185 -193.99560547 789.7565918 C-197.35213255 784.30151703 -200.70996186 778.84725164 -204.0703125 773.39453125 C-210.46938506 763.00824371 -216.85368857 752.61373783 -223.1875 742.1875 C-228.07752591 734.13858874 -233.00759252 726.11591323 -237.97216797 718.11279297 C-242.26713348 711.18846738 -246.54349509 704.25285926 -250.8125 697.3125 C-251.81966064 695.67510864 -251.81966064 695.67510864 -252.84716797 694.00463867 C-254.21540332 691.77999176 -255.58356704 689.55530079 -256.95166016 687.33056641 C-260.29993688 681.88632432 -263.65004759 676.4432111 -267 671 C-268.33334242 668.83333892 -269.66667574 666.66667225 -271 664.5 C-271.66 663.4275 -272.32 662.355 -273 661.25 C-285.66666667 640.66666667 -298.33333333 620.08333333 -311 599.5 C-311.66136963 598.42580811 -312.32273926 597.35161621 -313.00415039 596.24487305 C-314.32557837 594.09648169 -315.64510503 591.94691961 -316.96264648 589.79614258 C-320.08556825 584.70345522 -323.22692098 579.62514941 -326.43643188 574.5866394 C-327.95474026 572.20054383 -329.46227025 569.8077294 -330.96899414 567.41430664 C-332.03982551 565.72330635 -333.12620641 564.04218482 -334.21289062 562.36132812 C-334.85548828 561.33845703 -335.49808594 560.31558594 -336.16015625 559.26171875 C-336.73386963 558.36412842 -337.30758301 557.46653809 -337.89868164 556.54174805 C-339.24034426 553.44530611 -339.07343676 552.16379698 -338 549 C-336.91186523 546.80273437 -336.91186523 546.80273437 -335.55859375 544.59375 C-335.06133789 543.77398682 -334.56408203 542.95422363 -334.05175781 542.10961914 C-333.51905273 541.24844482 -332.98634766 540.38727051 -332.4375 539.5 C-331.62104004 538.16086548 -331.62104004 538.16086548 -330.78808594 536.79467773 C-329.19911404 534.19204325 -327.60067383 531.59544875 -326 529 C-325.23517383 527.75161026 -324.47078239 526.50295397 -323.70703125 525.25390625 C-321.81247888 522.16438671 -319.90744782 519.08157011 -318 516 C-316.66608069 513.83369404 -315.33275685 511.66702132 -314 509.5 C-290 470.5 -290 470.5 -287.97265625 467.20703125 C-286.72870091 465.18468009 -285.48629779 463.16137256 -284.24609375 461.13671875 C-281.10732879 456.01843032 -277.94950065 450.91356034 -274.7578125 445.828125 C-267.88235133 434.87091095 -261.07347963 423.87854519 -254.375 412.8125 C-248.40289605 402.94649861 -242.38014896 393.11436227 -236.296875 383.31640625 C-232.57756252 377.32505933 -228.88192096 371.31921793 -225.1875 365.3125 C-224.51581787 364.22050293 -223.84413574 363.12850586 -223.15209961 362.00341797 C-221.78410394 359.7791807 -220.41618441 357.5548966 -219.04833984 355.33056641 C-215.70006312 349.88632432 -212.34995241 344.4432111 -209 339 C-207.66665758 336.83333892 -206.33332426 334.66667225 -205 332.5 C-149 241.50000001 -149 241.50000001 -146.9987793 238.24804688 C-145.66947863 236.08791299 -144.34021413 233.92775685 -143.01098633 231.76757812 C-139.61625404 226.250774 -136.22083586 220.73439391 -132.82421875 215.21875 C-125.63233855 203.53880554 -118.45162236 191.85235831 -111.30761719 180.14306641 C-104.55897627 169.08265379 -97.79763093 158.03038257 -91 147 C-89.6665205 144.83342329 -88.3331889 142.66675554 -87 140.5 C-86.33097656 139.41332031 -85.66195312 138.32664062 -84.97265625 137.20703125 C-83.72870091 135.18468009 -82.48629779 133.16137256 -81.24609375 131.13671875 C-78.10732879 126.01843032 -74.94950065 120.91356034 -71.7578125 115.828125 C-64.88235133 104.87091095 -58.07347963 93.87854519 -51.375 82.8125 C-45.40682701 72.95299261 -39.38836206 63.12713744 -33.30859375 53.3359375 C-29.52112314 47.2349891 -25.76098793 41.11729641 -22 35 C-16.85896462 26.64287464 -11.71743324 18.28606192 -6.5625 9.9375 C-6.01271484 9.04482422 -5.46292969 8.15214844 -4.89648438 7.23242188 C-4.1452832 6.0171582 -4.1452832 6.0171582 -3.37890625 4.77734375 C-2.9413501 4.06827881 -2.50379395 3.35921387 -2.05297852 2.62866211 C-1 1 -1 1 0 0 Z " fill="#000000" transform="translate(1099,229)"/>
<path d="M0 0 C2.64257763 2.4089851 4.37512006 5.01850724 6.23046875 8.06640625 C6.86017578 9.09572266 7.48988281 10.12503906 8.13867188 11.18554688 C8.81478516 12.29994141 9.49089844 13.41433594 10.1875 14.5625 C10.9025481 15.73399672 11.61805071 16.90521614 12.33398438 18.07617188 C13.82126397 20.5095076 15.30657864 22.94402618 16.79052734 25.37939453 C20.17541171 30.93082691 23.58915111 36.46449849 27 42 C28.33346978 44.1665827 29.66680266 46.33324965 31 48.5 C31.66 49.5725 32.32 50.645 33 51.75 C51 81 69 110.25 87 139.5 C87.66040283 140.57314453 88.32080566 141.64628906 89.0012207 142.75195312 C90.33052137 144.91208701 91.65978587 147.07224315 92.98901367 149.23242188 C96.38374596 154.749226 99.77916414 160.26560609 103.17578125 165.78125 C110.36766145 177.46119446 117.54837764 189.14764169 124.69238281 200.85693359 C127.02278495 204.6762521 129.35508019 208.49441345 131.6875 212.3125 C132.10298096 212.993125 132.51846191 213.67375 132.9465332 214.375 C136.94839847 220.92648475 140.97481217 227.46282773 145 234 C146.23964615 236.01428426 147.479231 238.02860624 148.71875 240.04296875 C149.33234375 241.04005859 149.9459375 242.03714844 150.578125 243.06445312 C165.03125001 266.55078126 165.03125001 266.55078126 167.01831055 269.77978516 C168.34265576 271.93182573 169.66703744 274.08384385 170.99145508 276.23583984 C174.36364904 281.71529427 177.73517668 287.19515677 181.10546875 292.67578125 C187.2244565 302.62497507 193.3474381 312.57152516 199.5 322.5 C206.34209481 333.54118371 213.14751989 344.60483237 219.95166016 355.66943359 C223.29993688 361.11367568 226.65004759 366.5567889 230 372 C231.33334242 374.16666108 232.66667574 376.33332775 234 378.5 C234.66 379.5725 235.32 380.645 236 381.75 C248.66666667 402.33333333 261.33333333 422.91666667 274 443.5 C274.66016113 444.5727417 275.32032227 445.6454834 276.00048828 446.75073242 C277.33226668 448.91491297 278.66397254 451.07913815 279.99560547 453.2434082 C283.35213255 458.69848297 286.70996186 464.15274836 290.0703125 469.60546875 C297.16524383 481.12110117 304.23525961 492.65108227 311.26074219 504.20922852 C314.88995776 510.17955112 318.5325798 516.14090916 322.203125 522.0859375 C323.48915347 524.1715402 324.76979613 526.26046771 326.046875 528.3515625 C327.07554687 530.03378906 327.07554687 530.03378906 328.125 531.75 C329.10146484 533.34908203 329.10146484 533.34908203 330.09765625 534.98046875 C332.28617231 538.45423243 334.62672688 541.79616806 337.06640625 545.09765625 C338.2856558 547.5820685 337.85886037 548.40291402 337 551 C336.20944338 552.5380674 335.36337659 554.04817782 334.48046875 555.53515625 C333.95912354 556.41679443 333.43777832 557.29843262 332.90063477 558.20678711 C332.05263306 559.62036499 332.05263306 559.62036499 331.1875 561.0625 C330.60218506 562.04549072 330.01687012 563.02848145 329.41381836 564.04125977 C325.24393712 571.01091038 320.95600347 577.89858635 316.59033203 584.74682617 C312.66767801 590.90852855 308.84980671 597.12930268 305.0625 603.375 C300.61532388 610.70770199 296.1461576 618.02515375 291.625 625.3125 C286.79716217 633.09478554 281.98565421 640.88687323 277.1875 648.6875 C276.51605957 649.77909424 275.84461914 650.87068848 275.15283203 651.99536133 C273.78459668 654.22000824 272.41643296 656.44469921 271.04833984 658.66943359 C267.70006312 664.11367568 264.34995241 669.5567889 261 675 C259.66665758 677.16666108 258.33332426 679.33332775 257 681.5 C217.00000001 746.49999999 217.00000001 746.49999999 214.99951172 749.75073242 C213.66773332 751.91491297 212.33602746 754.07913815 211.00439453 756.2434082 C207.64786745 761.69848297 204.29003814 767.15274836 200.9296875 772.60546875 C194.53061494 782.99175629 188.14631143 793.38626217 181.8125 803.8125 C176.92247409 811.86141126 171.99240748 819.88408677 167.02783203 827.88720703 C162.73286652 834.81153262 158.45650491 841.74714074 154.1875 848.6875 C153.18033936 850.32489136 153.18033936 850.32489136 152.15283203 851.99536133 C150.78459668 854.22000824 149.41643296 856.44469921 148.04833984 858.66943359 C144.70006312 864.11367568 141.34995241 869.5567889 138 875 C136.66665758 877.16666108 135.33332426 879.33332775 134 881.5 C99.33333333 937.83333333 64.66666667 994.16666667 30 1050.5 C29.33895264 1051.57459473 28.67790527 1052.64918945 27.99682617 1053.75634766 C26.67549111 1055.90272957 25.35275799 1058.04825151 24.02856445 1060.19287109 C20.88141844 1065.29372618 17.74997978 1070.40260594 14.66671753 1075.54229736 C13.20021054 1077.98497557 11.72580617 1080.42283956 10.25073242 1082.86035156 C9.54590148 1084.03016053 8.84500154 1085.20234765 8.14819336 1086.37695312 C7.18542098 1087.99934683 6.20829593 1089.61319769 5.23046875 1091.2265625 C4.67770264 1092.15033691 4.12493652 1093.07411133 3.55541992 1094.02587891 C2.78548706 1095.00306885 2.78548706 1095.00306885 2 1096 C1.01 1096 0.02 1096 -1 1096 C-2.55541992 1094.02587891 -2.55541992 1094.02587891 -4.23046875 1091.2265625 C-4.86017578 1090.18757813 -5.48988281 1089.14859375 -6.13867188 1088.078125 C-6.82170082 1086.9271345 -7.50464104 1085.77609135 -8.1875 1084.625 C-8.90184054 1083.43940794 -9.61735369 1082.25452169 -10.33398438 1081.0703125 C-11.8240781 1078.60591239 -13.30904238 1076.13852945 -14.79052734 1073.66894531 C-18.14665588 1068.08377507 -21.57675098 1062.54417964 -25 1057 C-26.33368813 1054.83355171 -27.66702019 1052.66688418 -29 1050.5 C-29.66 1049.4275 -30.32 1048.355 -31 1047.25 C-65 992 -99 936.75 -133 881.5 C-133.66016113 880.4272583 -134.32032227 879.3545166 -135.00048828 878.24926758 C-136.33226668 876.08508703 -137.66397254 873.92086185 -138.99560547 871.7565918 C-142.35213255 866.30151703 -145.70996186 860.84725164 -149.0703125 855.39453125 C-155.46938506 845.00824371 -161.85368857 834.61373783 -168.1875 824.1875 C-173.07752591 816.13858874 -178.00759252 808.11591323 -182.97216797 800.11279297 C-187.26713348 793.18846738 -191.54349509 786.25285926 -195.8125 779.3125 C-196.48394043 778.22090576 -197.15538086 777.12931152 -197.84716797 776.00463867 C-199.21540332 773.77999176 -200.58356704 771.55530079 -201.95166016 769.33056641 C-205.29993688 763.88632432 -208.65004759 758.4432111 -212 753 C-213.33334242 750.83333892 -214.66667574 748.66667225 -216 746.5 C-216.66 745.4275 -217.32 744.355 -218 743.25 C-304.00000001 603.49999999 -304.00000001 603.49999999 -306.00268555 600.24560547 C-307.32703068 598.09356486 -308.6514118 595.94154638 -309.97583008 593.78955078 C-313.0784593 588.74811284 -316.18074347 583.70646365 -319.28170776 578.66400146 C-320.73412821 576.30227893 -322.18675861 573.94068556 -323.6394043 571.57910156 C-324.654989 569.92785973 -325.67027292 568.27643291 -326.68554688 566.625 C-327.30880859 565.61179687 -327.93207031 564.59859375 -328.57421875 563.5546875 C-329.44699463 562.11947754 -329.44699463 562.11947754 -330.33740234 560.65527344 C-331.39091946 558.97274009 -332.48618554 557.31507214 -333.63525391 555.69628906 C-334.11269043 555.0153418 -334.59012695 554.33439453 -335.08203125 553.6328125 C-335.50331299 553.0670752 -335.92459473 552.50133789 -336.35864258 551.91845703 C-337.38214413 548.85691336 -336.22752702 546.900781 -335 544 C-334.06279755 542.29134415 -333.06492125 540.61485923 -332.015625 538.97265625 C-331.41717773 538.02729004 -330.81873047 537.08192383 -330.20214844 536.10791016 C-329.23583496 534.60043213 -329.23583496 534.60043213 -328.25 533.0625 C-326.88423343 530.90569673 -325.51967957 528.74812512 -324.15625 526.58984375 C-323.46273438 525.49397949 -322.76921875 524.39811523 -322.0546875 523.26904297 C-318.9014961 518.2522615 -315.82165402 513.19198608 -312.75 508.125 C-311.88592529 506.70127075 -311.88592529 506.70127075 -311.00439453 505.2487793 C-309.87532837 503.38805383 -308.74657645 501.52713764 -307.61816406 499.66601562 C-305.12846841 495.56410306 -302.62779499 491.46892948 -300.125 487.375 C-299.67697021 486.6420874 -299.22894043 485.9091748 -298.76733398 485.15405273 C-294.85753498 478.76156414 -290.9313203 472.37927644 -287 466 C-285.6665205 463.83342329 -284.3331889 461.66675554 -283 459.5 C-259 420.5 -259 420.5 -256.97265625 417.20703125 C-255.72870091 415.18468009 -254.48629779 413.16137256 -253.24609375 411.13671875 C-250.10732879 406.01843032 -246.94950065 400.91356034 -243.7578125 395.828125 C-236.88235133 384.87091095 -230.07347963 373.87854519 -223.375 362.8125 C-217.40289605 352.94649861 -211.38014896 343.11436227 -205.296875 333.31640625 C-201.57756252 327.32505933 -197.88192096 321.31921793 -194.1875 315.3125 C-193.51581787 314.22050293 -192.84413574 313.12850586 -192.15209961 312.00341797 C-190.78410394 309.7791807 -189.41618441 307.5548966 -188.04833984 305.33056641 C-184.70006312 299.88632432 -181.34995241 294.4432111 -178 289 C-176.66665758 286.83333892 -175.33332426 284.66667225 -174 282.5 C-134 217.5 -134 217.5 -131.99951172 214.24926758 C-130.66773332 212.08508703 -129.33602746 209.92086185 -128.00439453 207.7565918 C-124.64786745 202.30151703 -121.29003814 196.84725164 -117.9296875 191.39453125 C-110.83475617 179.87889883 -103.76474039 168.34891773 -96.73925781 156.79077148 C-92.51724749 149.84525856 -88.26926669 142.9165849 -84 136 C-82.66637257 133.83351434 -81.33304616 131.66684337 -80 129.5 C-64 103.5 -64 103.5 -61.97265625 100.20703125 C-60.72870091 98.18468009 -59.48629779 96.16137256 -58.24609375 94.13671875 C-54.4641864 87.9696776 -50.64321526 81.82875797 -46.80126953 75.69897461 C-40.58442767 65.77802963 -34.43049418 55.82309431 -28.35668945 45.81396484 C-24.12651061 38.84457672 -19.87503591 31.88856846 -15.60421753 24.94403076 C-14.5995406 23.31023507 -13.59577334 21.67588009 -12.59204102 20.04150391 C-8.45620736 13.32110626 -4.25610161 6.64487251 0 0 Z " fill="#000000" transform="translate(702,874)"/>
<path d="M0 0 C0.66 0 1.32 0 2 0 C3.12231445 1.50268555 3.12231445 1.50268555 4.36328125 3.63671875 C4.83088867 4.43029785 5.29849609 5.22387695 5.78027344 6.04150391 C6.2859082 6.91468262 6.79154297 7.78786133 7.3125 8.6875 C8.40620858 10.543761 9.50130362 12.39920567 10.59765625 14.25390625 C11.16242676 15.21184082 11.72719727 16.16977539 12.30908203 17.15673828 C14.90050791 21.51419507 17.57116778 25.82090701 20.25 30.125 C21.3361033 31.87359494 22.4220362 33.62229574 23.5078125 35.37109375 C24.06887695 36.27456543 24.62994141 37.17803711 25.20800781 38.10888672 C34.43011534 52.98738772 43.57538586 67.91383431 52.69238281 82.85693359 C55.02278495 86.6762521 57.35508019 90.49441345 59.6875 94.3125 C60.31072144 95.3334375 60.31072144 95.3334375 60.9465332 96.375 C64.94839847 102.92648475 68.97481217 109.46282773 73 116 C74.23964615 118.01428426 75.479231 120.02860624 76.71875 122.04296875 C77.63914062 123.53860352 77.63914062 123.53860352 78.578125 125.06445312 C93.03124999 148.55078124 93.03124999 148.55078124 95.01831055 151.77978516 C96.34265576 153.93182573 97.66703744 156.08384385 98.99145508 158.23583984 C102.36364904 163.71529427 105.73517668 169.19515677 109.10546875 174.67578125 C115.2244565 184.62497507 121.3474381 194.57152516 127.5 204.5 C134.34209481 215.54118371 141.14751989 226.60483237 147.95166016 237.66943359 C151.29993688 243.11367568 154.65004759 248.5567889 158 254 C159.33334242 256.16666108 160.66667574 258.33332775 162 260.5 C162.66 261.5725 163.32 262.645 164 263.75 C176.66666667 284.33333333 189.33333333 304.91666667 202 325.5 C202.66016113 326.5727417 203.32032227 327.6454834 204.00048828 328.75073242 C205.33226668 330.91491297 206.66397254 333.07913815 207.99560547 335.2434082 C211.35213255 340.69848297 214.70996186 346.15274836 218.0703125 351.60546875 C225.16524383 363.12110117 232.23525961 374.65108227 239.26074219 386.20922852 C242.84894418 392.11208081 246.45028606 398.00616881 250.078125 403.88476562 C251.97348778 406.95702541 253.86612954 410.03094201 255.7578125 413.10546875 C256.46565679 414.25585984 257.17350186 415.40625046 257.88134766 416.55664062 C258.4129953 417.42071533 258.4129953 417.42071533 258.9553833 418.30224609 C260.54303886 420.88256903 262.13090001 423.46276545 263.71875 426.04296875 C280.03125001 452.55078127 280.03125001 452.55078127 282.01831055 455.77978516 C283.34265576 457.93182573 284.66703744 460.08384385 285.99145508 462.23583984 C289.36364904 467.71529427 292.73517668 473.19515677 296.10546875 478.67578125 C304.502387 492.33000377 304.502387 492.33000377 312.92993164 505.96533203 C313.96810715 507.64132925 315.00507471 509.31807537 316.04077148 510.99560547 C318.74401956 515.37213254 321.46165454 519.73869266 324.20605469 524.08956909 C325.69534832 526.45413867 327.17667083 528.82364723 328.65698242 531.19384766 C329.72599746 532.8992096 330.80527079 534.5981274 331.88476562 536.296875 C332.86219727 537.86501953 332.86219727 537.86501953 333.859375 539.46484375 C334.44170898 540.389021 335.02404297 541.31319824 335.62402344 542.26538086 C337.16128819 545.32054453 337.84390366 547.58050568 338 551 C336.95874023 553.51928711 336.95874023 553.51928711 335.30859375 556.02734375 C334.70088135 556.97206543 334.09316895 557.91678711 333.46704102 558.89013672 C332.79729248 559.8957666 332.12754395 560.90139648 331.4375 561.9375 C330.03765771 564.10456195 328.6392531 566.27255318 327.2421875 568.44140625 C326.52901367 569.53855957 325.81583984 570.63571289 325.08105469 571.76611328 C321.98282406 576.58065609 319.0195705 581.47295031 316.0625 586.375 C314.90562685 588.28296391 313.74806536 590.19051061 312.58984375 592.09765625 C312.0057373 593.05945801 311.42163086 594.02125977 310.81982422 595.01220703 C305.59141887 603.59621893 300.30538247 612.14509931 295.03222656 620.70166016 C291.68578956 626.13298692 288.34306582 631.56659783 285 637 C283.66668483 639.16667785 282.33335149 641.33334451 281 643.5 C280.34 644.5725 279.68 645.645 279 646.75 C129.00000001 890.49999999 129.00000001 890.49999999 126.99951172 893.75073242 C125.66773332 895.91491297 124.33602746 898.07913815 123.00439453 900.2434082 C119.64786745 905.69848297 116.29003814 911.15274836 112.9296875 916.60546875 C106.53061494 926.99175629 100.14631143 937.38626217 93.8125 947.8125 C88.92247409 955.86141126 83.99240748 963.88408677 79.02783203 971.88720703 C74.73286652 978.81153262 70.45650491 985.74714074 66.1875 992.6875 C65.18033936 994.32489136 65.18033936 994.32489136 64.15283203 995.99536133 C62.78459668 998.22000824 61.41643296 1000.44469921 60.04833984 1002.66943359 C56.70006312 1008.11367568 53.34995241 1013.5567889 50 1019 C48.66665758 1021.16666108 47.33332426 1023.33332775 46 1025.5 C13.71875 1077.95703125 13.71875 1077.95703125 11.89453125 1080.90869141 C10.5222592 1083.14782913 9.16674051 1085.39311021 7.82421875 1087.64990234 C7.46235474 1088.25259445 7.10049072 1088.85528656 6.72766113 1089.47624207 C5.70755689 1091.17621726 4.69441112 1092.8803623 3.68164062 1094.5847168 C3.12669922 1095.38176025 2.57175781 1096.17880371 2 1097 C1.34 1097 0.68 1097 0 1097 C-1.58129883 1094.76293945 -1.58129883 1094.76293945 -3.45703125 1091.61328125 C-3.96567215 1090.76683548 -3.96567215 1090.76683548 -4.48458862 1089.90328979 C-5.60044444 1088.0435301 -6.70627365 1086.17800057 -7.8125 1084.3125 C-8.97478222 1082.37110519 -10.13966937 1080.43128844 -11.30458069 1078.49147034 C-12.08810715 1077.18619137 -12.87076663 1075.8803916 -13.65257263 1074.57408142 C-16.94324474 1069.07782358 -20.30027656 1063.62478721 -23.6875 1058.1875 C-28.1655321 1050.98261764 -32.59701264 1043.75098262 -37 1036.5 C-41.95186676 1028.34702967 -46.94299871 1020.21995536 -51.97143555 1012.11401367 C-56.26660394 1005.18925561 -60.54324647 998.25326345 -64.8125 991.3125 C-65.48394043 990.22090576 -66.15538086 989.12931152 -66.84716797 988.00463867 C-68.21540332 985.77999176 -69.58356704 983.55530079 -70.95166016 981.33056641 C-74.29993688 975.88632432 -77.65004759 970.4432111 -81 965 C-82.33334242 962.83333892 -83.66667574 960.66667225 -85 958.5 C-85.66 957.4275 -86.32 956.355 -87 955.25 C-126.33333333 891.33333333 -165.66666667 827.41666667 -205 763.5 C-205.66016113 762.4272583 -206.32032227 761.3545166 -207.00048828 760.24926758 C-208.33226668 758.08508703 -209.66397254 755.92086185 -210.99560547 753.7565918 C-214.35213255 748.30151703 -217.70996186 742.84725164 -221.0703125 737.39453125 C-227.46938506 727.00824371 -233.85368857 716.61373783 -240.1875 706.1875 C-245.07752591 698.13858874 -250.00759252 690.11591323 -254.97216797 682.11279297 C-259.26713348 675.18846738 -263.54349509 668.25285926 -267.8125 661.3125 C-268.81966064 659.67510864 -268.81966064 659.67510864 -269.84716797 658.00463867 C-271.21540332 655.77999176 -272.58356704 653.55530079 -273.95166016 651.33056641 C-277.29993688 645.88632432 -280.65004759 640.4432111 -284 635 C-285.33334242 632.83333892 -286.66667574 630.66667225 -288 628.5 C-288.99 626.89125 -288.99 626.89125 -290 625.25 C-296 615.5 -296 615.5 -298.00097656 612.24829102 C-299.33090932 610.0872315 -300.66098685 607.92626106 -301.99121094 605.76538086 C-305.37778129 600.2636559 -308.76162196 594.76028256 -312.140625 589.25390625 C-312.82261963 588.14370117 -313.50461426 587.03349609 -314.20727539 585.88964844 C-315.55476688 583.69488161 -316.90035027 581.49894199 -318.24389648 579.30175781 C-321.32901544 574.27096077 -324.45046176 569.27733935 -327.70703125 564.35546875 C-328.56022949 563.05403931 -328.56022949 563.05403931 -329.43066406 561.72631836 C-330.48426936 560.12746759 -331.55173867 558.5376278 -332.63574219 556.95922852 C-333.09754883 556.25596436 -333.55935547 555.5527002 -334.03515625 554.828125 C-334.4412915 554.2290332 -334.84742676 553.62994141 -335.26586914 553.01269531 C-336.34958415 550.04157907 -335.78722915 548.02780444 -335 545 C-333.77929688 542.56005859 -333.77929688 542.56005859 -332.21875 540.1484375 C-331.33968994 538.76942261 -331.33968994 538.76942261 -330.44287109 537.36254883 C-329.4811499 535.88371216 -329.4811499 535.88371216 -328.5 534.375 C-327.1257911 532.22120782 -325.75347052 530.06620992 -324.3828125 527.91015625 C-323.84679916 527.07018349 -323.84679916 527.07018349 -323.29995728 526.21324158 C-319.22116572 519.80926964 -315.29909556 513.31193959 -311.375 506.8125 C-309.93720628 504.4355866 -308.49819953 502.05941004 -307.05859375 499.68359375 C-306.71081375 499.10958832 -306.36303375 498.53558289 -306.00471497 497.94418335 C-301.81651982 491.03860346 -297.55690819 484.17778026 -293.296875 477.31640625 C-289.57756252 471.32505933 -285.88192096 465.31921793 -282.1875 459.3125 C-281.51581787 458.22050293 -280.84413574 457.12850586 -280.15209961 456.00341797 C-278.78410394 453.7791807 -277.41618441 451.5548966 -276.04833984 449.33056641 C-272.70006312 443.88632432 -269.34995241 438.4432111 -266 433 C-264.66665758 430.83333892 -263.33332426 428.66667225 -262 426.5 C-222 361.5 -222 361.5 -219.99951172 358.24926758 C-218.66773332 356.08508703 -217.33602746 353.92086185 -216.00439453 351.7565918 C-212.64786745 346.30151703 -209.29003814 340.84725164 -205.9296875 335.39453125 C-198.83475617 323.87889883 -191.76474039 312.34891773 -184.73925781 300.79077148 C-180.51724749 293.84525856 -176.26926669 286.9165849 -172 280 C-170.66637257 277.83351434 -169.33304616 275.66684337 -168 273.5 C-152 247.5 -152 247.5 -149.97265625 244.20703125 C-148.72870091 242.18468009 -147.48629779 240.16137256 -146.24609375 238.13671875 C-142.4641864 231.9696776 -138.64321526 225.82875797 -134.80126953 219.69897461 C-128.57762403 209.76717227 -122.4167882 199.80144358 -116.33691406 189.78100586 C-109.94999176 179.2572215 -103.49071753 168.77830135 -97.03222656 158.29833984 C-93.68578956 152.86701308 -90.34306582 147.43340217 -87 142 C-85.66668483 139.83332215 -84.33335149 137.66665549 -83 135.5 C-82.34 134.4275 -81.68 133.355 -81 132.25 C-43 70.49999999 -43 70.49999999 -40.99951172 67.24926758 C-39.66773332 65.08508703 -38.33602746 62.92086185 -37.00439453 60.7565918 C-33.64786745 55.30151703 -30.29003814 49.84725164 -26.9296875 44.39453125 C-20.28497463 33.60992709 -13.65390059 22.81729078 -7.0625 12 C-6.4648584 11.0200708 -5.8672168 10.0401416 -5.25146484 9.03051758 C-4.70570801 8.13357178 -4.15995117 7.23662598 -3.59765625 6.3125 C-3.11820557 5.52488281 -2.63875488 4.73726562 -2.14477539 3.92578125 C-0.97655375 2.01362002 -0.97655375 2.01362002 0 0 Z " fill="#000000" transform="translate(1496,874)"/>
</svg>
