<?xml version="1.0" standalone="no"?>
<!DOCTYPE svg PUBLIC "-//W3C//DTD SVG 20010904//EN"
 "http://www.w3.org/TR/2001/REC-SVG-20010904/DTD/svg10.dtd">
<svg version="1.0" xmlns="http://www.w3.org/2000/svg"
 width="11531.000000pt" height="6486.000000pt" viewBox="0 0 11531.000000 6486.000000"
 preserveAspectRatio="xMidYMid meet">

<g transform="translate(0.000000,6486.000000) scale(0.100000,-0.100000)"
fill="#FFFFFF" stroke="none">
<path d="M5 64848 c-3 -7 -4 -14600 -2 -32428 l2 -32415 57653 -3 57652 -2 0
32430 0 32430 -57650 0 c-46111 0 -57652 -3 -57655 -12z m51678 -26221 c2 -7
88 -118 189 -247 101 -129 281 -359 399 -510 118 -151 428 -547 689 -880 261
-333 529 -675 595 -760 67 -85 252 -321 411 -525 160 -203 379 -485 489 -625
109 -140 200 -257 202 -259 7 -10 68 64 345 419 156 201 401 514 543 695 142
182 408 521 591 755 183 234 435 556 560 715 593 757 932 1192 945 1213 l14
22 382 0 c211 0 383 -2 383 -5 0 -7 -289 -367 -310 -386 -10 -8 -125 -152
-255 -320 -131 -167 -261 -333 -290 -369 -28 -36 -159 -202 -290 -370 -533
-681 -1116 -1427 -1410 -1801 -286 -366 -797 -1019 -817 -1045 -8 -11 40 -73
641 -839 476 -608 947 -1209 981 -1254 20 -25 151 -192 291 -371 140 -179 353
-451 474 -605 120 -154 275 -352 345 -440 69 -88 198 -252 286 -365 87 -113
162 -206 166 -208 18 -8 318 -393 313 -401 -3 -6 -161 -10 -379 -10 -316 0
-375 2 -380 14 -3 8 -71 99 -152 202 -81 104 -188 240 -238 303 -49 63 -138
176 -196 250 -149 189 -527 672 -574 734 -62 81 -527 673 -670 854 -29 37
-192 245 -362 462 -170 217 -409 523 -532 680 -123 157 -260 333 -305 392 -45
59 -86 106 -92 104 -5 -1 -64 -72 -131 -157 -204 -261 -1162 -1485 -1443
-1843 -146 -186 -307 -391 -356 -455 -50 -64 -158 -201 -240 -306 -82 -104
-260 -332 -395 -505 -135 -173 -317 -404 -403 -514 -86 -109 -157 -202 -157
-207 0 -13 -747 -12 -755 1 -5 8 245 330 303 388 21 21 390 493 1732 2207 509
651 611 782 686 875 28 36 158 202 290 370 131 168 296 379 366 469 l128 164
-27 36 c-15 20 -158 203 -317 406 -159 204 -458 586 -665 850 -206 264 -505
647 -665 850 -159 204 -355 453 -435 555 -79 102 -183 235 -231 295 -48 61
-185 236 -305 390 -291 372 -398 507 -427 536 -27 28 -301 369 -306 381 -2 4
169 8 381 8 303 0 386 -3 390 -13z m-5303 -70 c0 -12 13 -56 29 -97 16 -41
158 -408 316 -815 158 -407 340 -877 405 -1045 119 -309 366 -944 667 -1720
147 -379 264 -679 655 -1690 61 -157 157 -404 213 -550 56 -146 215 -555 353
-910 138 -355 330 -850 427 -1100 97 -250 180 -459 184 -465 8 -9 121 -301
121 -311 0 -2 -143 -4 -317 -4 l-318 0 -195 503 c-107 276 -211 545 -231 597
-20 52 -162 417 -314 810 -153 393 -363 936 -467 1205 -105 270 -253 652 -330
850 -76 198 -177 457 -222 575 -46 118 -146 375 -221 570 -76 195 -161 416
-190 490 -116 298 -496 1279 -642 1655 -85 220 -202 522 -260 670 -58 149
-109 282 -115 298 -10 27 -10 27 -108 27 l-99 0 -19 -52 c-26 -69 -338 -875
-402 -1038 -27 -69 -171 -440 -320 -825 -149 -385 -288 -745 -310 -800 -51
-133 -328 -845 -665 -1715 -86 -223 -237 -612 -335 -865 -98 -253 -364 -937
-590 -1520 -226 -583 -443 -1144 -483 -1247 l-72 -188 -317 0 c-175 0 -318 3
-318 7 0 11 112 297 121 308 8 11 54 127 229 580 61 160 150 389 197 510 47
121 148 380 223 575 76 195 267 688 425 1095 158 407 367 947 465 1200 98 253
252 651 343 885 91 234 336 866 545 1405 209 539 423 1090 475 1225 302 779
337 873 337 905 l0 35 565 0 565 0 0 -23z m17700 -7 c0 -16 20 -80 44 -142 24
-62 125 -322 224 -578 99 -256 212 -546 250 -645 72 -185 485 -1250 565 -1455
24 -63 89 -232 145 -375 131 -340 344 -888 812 -2095 210 -542 408 -1052 440
-1135 48 -125 475 -1226 692 -1785 33 -85 64 -160 69 -165 10 -14 119 -298
119 -314 0 -8 -86 -11 -320 -11 -263 0 -320 2 -320 14 0 12 -50 142 -350 916
-221 570 -1270 3275 -1338 3450 -68 177 -702 1812 -967 2495 -130 336 -288
743 -351 905 -62 162 -128 333 -147 380 l-33 85 -99 0 -99 0 -18 -45 c-9 -25
-128 -331 -264 -680 -135 -349 -310 -801 -389 -1005 -351 -907 -538 -1389
-748 -1930 -194 -499 -333 -860 -754 -1945 -41 -107 -95 -244 -118 -305 -24
-60 -129 -330 -233 -600 -105 -269 -296 -764 -426 -1098 -130 -335 -236 -615
-236 -623 0 -12 -49 -14 -320 -14 -238 0 -320 3 -320 12 0 14 109 299 120 313
7 9 234 589 455 1165 35 91 105 271 155 400 51 129 145 372 210 540 65 168
236 609 380 980 144 371 347 896 452 1165 104 270 238 616 298 770 90 234 417
1076 543 1400 49 126 315 813 502 1295 86 223 177 456 201 518 24 63 44 127
44 143 l0 29 565 0 565 0 0 -30z m4990 -4075 l0 -4035 2175 0 2175 0 0 -290 0
-290 -2018 0 c-1110 0 -2222 -3 -2470 -7 l-452 -6 0 4331 0 4332 295 0 295 0
0 -4035z m4348 -7232 l-3 -1018 -15757 -2 -15758 -3 0 1020 0 1020 15760 0
15760 0 -2 -1017z"/>
<path d="M55155 27656 c-122 -30 -212 -105 -266 -220 -26 -56 -33 -84 -37
-160 -10 -199 68 -344 228 -420 62 -30 70 -31 195 -31 139 0 206 16 275 65
l30 22 -2 156 -3 157 -127 3 -128 3 0 -41 0 -40 75 0 75 0 0 -99 0 -99 -42
-17 c-63 -26 -203 -32 -266 -11 -72 24 -133 82 -167 158 -25 54 -29 76 -29
153 -1 122 21 183 88 251 68 67 126 87 240 83 70 -3 93 -9 146 -36 75 -39 83
-40 104 -8 28 43 21 55 -64 99 -86 45 -220 58 -325 32z"/>
<path d="M58520 27659 c-119 -37 -190 -159 -160 -277 23 -92 74 -131 240 -183
52 -17 86 -35 113 -61 38 -36 39 -39 35 -88 -9 -93 -68 -140 -173 -140 -59 0
-90 12 -183 71 -22 13 -25 12 -48 -14 -13 -15 -24 -34 -24 -42 0 -19 86 -73
144 -90 77 -23 181 -19 241 9 93 43 146 127 147 233 1 104 -44 159 -171 211
-29 12 -59 22 -65 22 -22 0 -114 48 -135 71 -29 32 -29 106 1 144 49 62 142
72 234 25 32 -16 64 -30 70 -30 16 0 31 20 39 51 6 23 1 28 -55 58 -51 27 -75
34 -138 37 -42 2 -93 -1 -112 -7z"/>
<path d="M60770 27654 c-192 -52 -299 -215 -288 -439 10 -192 107 -326 276
-380 82 -27 228 -18 309 19 75 34 153 113 188 188 94 207 21 476 -155 572
-102 56 -219 70 -330 40z m233 -104 c63 -24 117 -76 149 -145 20 -43 23 -66
23 -160 0 -104 -2 -114 -33 -177 -52 -106 -127 -151 -252 -151 -96 0 -165 28
-220 90 -56 64 -75 127 -75 245 1 90 3 101 35 165 37 71 95 122 164 142 56 16
152 12 209 -9z"/>
<path d="M68180 27661 c-108 -33 -173 -118 -173 -226 0 -66 16 -105 60 -146
35 -33 67 -49 168 -84 100 -34 138 -57 153 -90 18 -39 14 -96 -8 -133 -58 -95
-200 -99 -321 -9 -33 24 -53 18 -74 -23 -15 -30 -15 -32 7 -50 55 -47 129 -74
214 -78 138 -7 221 35 271 136 22 45 28 71 28 122 0 117 -47 163 -230 230
-127 45 -165 77 -165 136 0 53 26 93 73 115 61 27 114 24 183 -11 32 -16 66
-30 75 -30 8 0 23 16 32 35 l17 35 -46 30 c-70 44 -191 63 -264 41z"/>
<path d="M45890 27653 c0 -5 66 -170 146 -368 80 -198 155 -384 166 -413 l20
-53 51 3 51 3 164 405 c90 223 166 411 169 418 4 9 -10 12 -50 12 -32 0 -59
-5 -64 -12 -12 -15 -259 -642 -265 -673 -3 -15 -8 -9 -16 20 -7 22 -68 180
-136 350 l-124 310 -56 3 c-31 2 -56 -1 -56 -5z"/>
<path d="M46870 27240 l0 -420 255 0 255 0 0 45 0 45 -197 2 -198 3 -3 143 -3
142 161 0 160 0 0 45 0 45 -160 0 -160 0 0 140 0 140 200 0 200 0 0 45 0 45
-255 0 -255 0 0 -420z"/>
<path d="M47650 27240 l0 -420 55 0 55 0 0 175 0 175 64 0 64 0 122 -170 c79
-110 130 -172 144 -176 13 -3 42 -4 65 -2 l43 3 -127 175 c-70 96 -132 178
-138 181 -5 4 12 17 39 28 106 47 162 140 151 248 -7 66 -31 108 -85 149 -56
43 -115 54 -297 54 l-155 0 0 -420z m320 324 c102 -21 144 -161 73 -245 -38
-44 -82 -60 -190 -66 l-93 -6 0 162 0 161 89 0 c49 0 103 -3 121 -6z"/>
<path d="M48510 27239 l0 -420 53 3 52 3 3 418 2 417 -55 0 -55 0 0 -421z"/>
<path d="M48940 27240 l0 -420 55 0 55 0 0 180 0 180 170 0 170 0 0 45 0 45
-170 0 -171 0 3 148 3 147 198 3 197 2 0 45 0 45 -255 0 -255 0 0 -420z"/>
<path d="M49720 27240 l0 -420 55 0 55 0 0 420 0 420 -55 0 -55 0 0 -420z"/>
<path d="M50386 27652 c-6 -11 -326 -813 -326 -819 0 -2 26 -3 57 -1 l57 3 41
107 40 108 190 0 191 0 13 -37 c7 -21 27 -71 43 -110 l30 -73 55 0 c48 0 54 2
49 18 -4 9 -78 196 -164 414 l-157 398 -57 0 c-31 0 -59 -4 -62 -8z m143 -327
c38 -99 67 -183 64 -187 -2 -5 -69 -8 -148 -8 -79 0 -146 3 -148 8 -2 4 30 96
72 205 55 145 78 194 83 180 5 -10 39 -99 77 -198z"/>
<path d="M51040 27239 l0 -421 193 4 c207 5 246 13 312 63 48 37 78 105 78
174 0 91 -46 152 -136 181 l-39 12 50 29 c69 39 97 87 97 164 -1 80 -26 130
-84 166 -68 44 -100 49 -293 49 l-178 0 0 -421z m369 315 c53 -21 75 -56 75
-121 1 -60 -22 -98 -75 -125 -26 -14 -59 -18 -146 -18 l-113 0 0 140 0 140
110 0 c77 0 121 -5 149 -16z m29 -371 c54 -27 76 -63 75 -124 -1 -59 -21 -93
-74 -124 -29 -17 -52 -20 -159 -20 l-125 0 -3 139 c-2 105 1 141 10 148 24 15
236 1 276 -19z"/>
<path d="M51890 27240 l0 -420 235 0 235 0 0 50 0 50 -180 0 -180 0 0 370 0
370 -55 0 -55 0 0 -420z"/>
<path d="M52590 27240 l0 -420 255 0 255 0 0 45 0 45 -197 2 -198 3 -3 143 -3
142 161 0 160 0 0 45 0 45 -160 0 -160 0 0 140 0 140 200 0 200 0 0 45 0 45
-255 0 -255 0 0 -420z"/>
<path d="M54108 27248 l-164 -413 50 -3 c31 -2 54 2 61 10 7 7 29 57 50 111
l37 97 190 -2 189 -3 42 -105 42 -105 58 -3 c33 -2 57 1 54 5 -2 4 -77 191
-167 416 l-162 407 -58 0 -58 0 -164 -412z m296 109 c37 -100 71 -192 73 -204
l5 -23 -151 0 c-84 0 -151 4 -151 9 0 5 32 92 70 192 39 101 70 189 70 196 0
39 22 -6 84 -170z"/>
<path d="M55850 27240 l0 -420 255 0 255 0 0 45 0 45 -197 2 -198 3 -3 143 -3
142 161 0 160 0 0 45 0 45 -160 0 -160 0 0 140 0 140 200 0 200 0 0 45 0 45
-255 0 -255 0 0 -420z"/>
<path d="M56620 27239 l0 -420 48 3 47 3 5 317 5 317 234 -305 c129 -168 241
-312 248 -320 8 -8 30 -14 49 -14 l34 0 0 420 0 420 -45 0 -45 0 -1 -302 c-1
-167 -1 -309 0 -315 1 -7 -2 -13 -6 -13 -4 1 -111 136 -238 302 -126 165 -236
307 -243 314 -7 8 -31 14 -53 14 l-39 0 0 -421z"/>
<path d="M57510 27615 l0 -45 135 0 135 0 2 -372 3 -373 55 0 55 0 3 373 2
372 135 0 135 0 0 45 0 45 -330 0 -330 0 0 -45z"/>
<path d="M59770 27240 l0 -420 55 0 55 0 0 180 0 180 170 0 170 0 0 45 0 45
-170 0 -171 0 3 148 3 147 198 3 197 2 0 45 0 45 -255 0 -255 0 0 -420z"/>
<path d="M61562 27243 l3 -418 55 0 55 0 3 173 2 173 63 -3 62 -3 65 -89 c36
-49 92 -125 125 -170 l60 -81 58 -3 c31 -2 57 1 57 6 0 4 -14 28 -32 53 -83
114 -173 237 -199 271 -16 20 -29 39 -29 41 0 2 17 9 38 15 93 28 152 115 152
226 0 82 -24 135 -79 172 -68 44 -120 54 -298 54 l-163 0 2 -417z m355 308
c51 -23 76 -68 77 -132 0 -104 -67 -156 -218 -166 l-96 -6 0 161 0 162 98 0
c74 0 107 -5 139 -19z"/>
<path d="M63290 27614 c-11 -26 -20 -48 -20 -50 0 -2 -220 -557 -287 -722 -4
-10 8 -12 53 -10 l58 3 41 105 42 105 189 3 190 2 33 -87 c48 -129 52 -133
111 -133 28 0 50 3 50 7 0 4 -73 190 -162 415 l-162 408 -58 0 -57 0 -21 -46z
m153 -266 c38 -101 71 -191 74 -200 5 -17 -7 -18 -146 -18 -122 0 -151 3 -151
14 0 7 28 85 61 172 34 88 66 174 71 192 5 19 12 31 15 28 3 -3 37 -88 76
-188z"/>
<path d="M63962 27243 l3 -418 47 -3 48 -3 2 322 3 321 224 -293 c275 -361
265 -349 313 -349 l38 0 0 420 0 420 -50 0 -50 0 -2 -318 -3 -318 -245 318
-244 318 -43 0 -43 0 2 -417z"/>
<path d="M64858 27643 c6 -10 74 -123 151 -252 l141 -233 0 -169 0 -169 55 0
55 0 0 166 0 166 150 250 c83 137 150 251 150 254 0 2 -24 4 -53 4 -39 0 -58
-5 -69 -17 -16 -20 -200 -335 -218 -375 l-12 -26 -28 52 c-15 28 -68 121 -117
206 l-90 155 -62 3 c-57 3 -61 2 -53 -15z"/>
<path d="M66352 27615 l3 -46 135 -2 135 -2 3 -372 2 -373 55 0 55 0 2 373 3
372 130 1 130 1 3 46 3 47 -331 0 -331 0 3 -45z"/>
<path d="M67225 27263 c-87 -219 -160 -405 -163 -415 -4 -16 3 -18 46 -18 28
0 54 5 59 13 6 6 27 56 48 110 l39 97 188 -2 189 -3 42 -105 42 -105 58 -3 57
-3 -19 48 c-11 26 -80 201 -154 388 -74 187 -141 352 -148 368 -11 25 -17 27
-69 27 l-56 0 -159 -397z m311 32 c30 -76 54 -145 54 -152 0 -10 -34 -13 -150
-13 -82 0 -150 4 -150 9 0 5 31 89 68 187 38 99 72 188 76 199 6 16 11 10 28
-35 11 -30 45 -118 74 -195z"/>
<path d="M68760 27240 l0 -420 55 0 55 0 2 193 3 192 42 3 c51 4 35 18 232
-211 79 -92 154 -170 166 -173 12 -3 41 -4 66 -2 l44 3 -159 190 c-87 105
-171 202 -187 218 l-30 27 113 128 c62 70 142 160 177 200 l63 72 -65 0 -64 0
-138 -160 c-165 -192 -187 -212 -229 -208 l-31 3 -3 183 -2 182 -55 0 -55 0 0
-420z"/>
</g>
</svg>
